<svg width="27" height="26" viewBox="0 0 27 26" fill="none" xmlns="http://www.w3.org/2000/svg">
  <path fill-rule="evenodd" clip-rule="evenodd" d="M26.949 9.64186C26.814 9.22718 26.4474 8.95887 26.0154 8.95887L17.1839 8.93651L14.3992 0.673587C14.2602 0.260949 13.8966 -0.0165142 13.4575 0.0007637C13.0254 0.00584545 12.6609 0.276194 12.5309 0.691881L9.92348 8.93651L0.985232 8.95887C0.553174 8.95887 0.18658 9.22718 0.051625 9.64084C-0.0843372 10.0555 0.0536392 10.4915 0.402105 10.7497L7.3966 15.9544L4.65319 24.7021C4.52226 25.1178 4.66326 25.5508 5.01374 25.8069C5.18999 25.935 5.39141 26 5.59284 26C5.79225 26 5.99065 25.937 6.16287 25.812L13.5371 20.5676L20.8377 25.8079C21.1852 26.064 21.6404 26.063 21.9899 25.8069C22.3404 25.5518 22.4813 25.1188 22.3514 24.7031L19.604 15.9544L26.5975 10.7507C26.9459 10.4915 27.0839 10.0555 26.949 9.64186Z" fill="#D8DFE5"/>
</svg>
